<?xml version="1.0" encoding="utf-8"?>
<!-- Generator: Adobe Illustrator 19.2.0, SVG Export Plug-In . SVG Version: 6.00 Build 0)  -->
<!DOCTYPE svg PUBLIC "-//W3C//DTD SVG 1.1//EN" "http://www.w3.org/Graphics/SVG/1.1/DTD/svg11.dtd">
<svg version="1.1" id="Layer_1" xmlns="http://www.w3.org/2000/svg" xmlns:xlink="http://www.w3.org/1999/xlink" x="0px" y="0px"
	 viewBox="0 0 400 400" enable-background="new 0 0 400 400" xml:space="preserve">
<g>
	<path d="M341.5,75.4c-10.1,0-18.4,8.2-18.4,18.4c0,10.1,8.2,18.4,18.4,18.4c10.1,0,18.4-8.3,18.4-18.4
		C359.8,83.7,351.6,75.4,341.5,75.4z"/>
	<path d="M375,109c-10.1,0-18.4,8.2-18.4,18.4c0,10.1,8.2,18.4,18.4,18.4c10.1,0,18.4-8.3,18.4-18.4C393.4,117.2,385.1,109,375,109z
		"/>
	<path d="M253.9,95.6c-24.6,0-47.4,7.8-66.1,21.1c28.9,20.8,47.7,54.7,47.7,92.9c0,38.5-19.1,72.6-48.4,93.4
		c18.8,13.6,41.9,21.6,66.8,21.6c63.1,0,114.5-51.4,114.5-114.5C368.4,147,317,95.6,253.9,95.6z"/>
	<path d="M139.4,210.1c0-38.5,19.1-72.6,48.4-93.4C169,103.1,146,95.1,121.1,95.1c-10.4,0-20.4,1.4-29.9,4
		c17.9,10.3,29.9,29.5,29.9,51.5c0,32.8-26.7,59.4-59.4,59.4c-21.9,0-41-11.9-51.3-29.5c-2.4,9.3-3.7,19-3.7,29
		c0,63.1,51.4,114.5,114.5,114.5c24.6,0,47.4-7.8,66.1-21.1C158.3,282.2,139.4,248.3,139.4,210.1z"/>
</g>
</svg>
